<svg width="700" height="1000" viewBox="0 0 700 1000" fill="none" xmlns="http://www.w3.org/2000/svg">
  <defs>
    <linearGradient id="g1" x1="0" y1="0" x2="1" y2="1">
      <stop offset="0%" stop-color="#0b0f15"/>
      <stop offset="100%" stop-color="#0f1520"/>
    </linearGradient>
    <linearGradient id="g2" x1="0" y1="0" x2="1" y2="0">
      <stop offset="0%" stop-color="#00f5a0"/>
      <stop offset="100%" stop-color="#07f7d1"/>
    </linearGradient>
    <linearGradient id="g3" x1="0" y1="0" x2="1" y2="0">
      <stop offset="0%" stop-color="#ff3cac"/>
      <stop offset="100%" stop-color="#8b5cf6"/>
    </linearGradient>
    <filter id="glow" x="-50%" y="-50%" width="200%" height="200%">
      <feGaussianBlur stdDeviation="8" result="coloredBlur"/>
      <feMerge>
        <feMergeNode in="coloredBlur"/>
        <feMergeNode in="SourceGraphic"/>
      </feMerge>
    </filter>
  </defs>
  <rect x="20" y="20" width="660" height="960" rx="24" fill="url(#g1)" stroke="#203047" stroke-width="2"/>
  <g filter="url(#glow)">
    <circle cx="350" cy="220" r="8" fill="#fff" opacity="0.7"/>
    <circle cx="150" cy="320" r="5" fill="#fff" opacity="0.6"/>
    <circle cx="560" cy="380" r="6" fill="#fff" opacity="0.6"/>
    <circle cx="420" cy="620" r="5" fill="#fff" opacity="0.6"/>
  </g>
  <g>
    <path d="M100,720 C220,600 360,540 560,560" stroke="url(#g2)" stroke-width="8" fill="none"/>
    <ellipse cx="560" cy="560" rx="70" ry="24" fill="url(#g2)" opacity="0.25"/>
  </g>
  <g filter="url(#glow)">
    <path d="M300,420 C360,360 460,360 520,420 C560,460 560,540 520,580 C460,640 360,640 300,580 C260,540 260,460 300,420 Z" fill="#111a28" stroke="#2b3d59"/>
    <path d="M360,520 L380,560 L340,560 Z" fill="url(#g3)"/>
    <circle cx="400" cy="500" r="10" fill="url(#g2)"/>
  </g>
  <text x="350" y="120" text-anchor="middle" font-family="Inter,Segoe UI,Arial" font-size="28" fill="#e6f1ff">The Cosmic Journey</text>
  <text x="350" y="920" text-anchor="middle" font-family="Inter,Segoe UI,Arial" font-size="16" fill="#9bb0c8">Crypto Tarot</text>
</svg>


